<svg xmlns="http://www.w3.org/2000/svg" width="1024" height="1024"><path fill="#d6ab7f" d="M55.941 860.729L860.729 55.941c29.582-29.582 77.369-29.582 107.33 0 29.582 29.961 29.582 77.748 0 107.33L163.271 968.059c-29.582 29.582-77.369 29.582-107.33 0-29.582-29.961-29.582-77.748 0-107.33z"/><path fill="#d6ab7f" d="M860.729 968.059L55.941 163.271c-29.582-29.582-29.582-77.369 0-107.33 29.961-29.582 77.748-29.582 107.33 0l804.788 804.788c29.582 29.582 29.582 77.369 0 107.33-29.961 29.582-77.748 29.582-107.33 0z"/></svg>