<!-- Generated by IcoMoon.io -->
<svg version="1.1" xmlns="http://www.w3.org/2000/svg" width="1024" height="1024" viewBox="0 0 1024 1024">
<title></title>
<g id="icomoon-ignore">
</g>
<path fill="#d6ab7f" d="M55.941 860.729l804.788-804.788c29.582-29.582 77.369-29.582 107.33 0v0c29.582 29.961 29.582 77.748 0 107.33l-804.788 804.788c-29.582 29.582-77.369 29.582-107.33 0v0c-29.582-29.961-29.582-77.748 0-107.33z"></path>
<path fill="#d6ab7f" d="M860.729 968.059l-804.788-804.788c-29.582-29.582-29.582-77.369 0-107.33v0c29.961-29.582 77.748-29.582 107.33 0l804.788 804.788c29.582 29.582 29.582 77.369 0 107.33v0c-29.961 29.582-77.748 29.582-107.33 0z"></path>
</svg>
